<mxfile host="app.diagrams.net" agent="Mozilla/5.0 (Windows NT 10.0; Win64; x64) AppleWebKit/537.36 (KHTML, like Gecko) Chrome/135.0.0.0 Safari/537.36" version="26.2.14">
  <diagram name="Page-1" id="CkRWKEa2cxSSnft_5QSC">
    <mxGraphModel dx="1158" dy="586" grid="1" gridSize="10" guides="1" tooltips="1" connect="1" arrows="1" fold="1" page="1" pageScale="1" pageWidth="827" pageHeight="1169" math="0" shadow="0">
      <root>
        <mxCell id="0" />
        <mxCell id="1" parent="0" />
        <mxCell id="leZE12n9osoUIWR-YbD_-13" value="" style="edgeStyle=orthogonalEdgeStyle;rounded=0;orthogonalLoop=1;jettySize=auto;html=1;" edge="1" parent="1" source="leZE12n9osoUIWR-YbD_-2" target="leZE12n9osoUIWR-YbD_-12">
          <mxGeometry relative="1" as="geometry" />
        </mxCell>
        <mxCell id="leZE12n9osoUIWR-YbD_-2" value="Restaurant&lt;br&gt;Owner" style="shape=umlActor;verticalLabelPosition=bottom;verticalAlign=top;html=1;outlineConnect=0;" vertex="1" parent="1">
          <mxGeometry x="770" y="210" width="30" height="60" as="geometry" />
        </mxCell>
        <mxCell id="leZE12n9osoUIWR-YbD_-3" value="Customer" style="shape=umlActor;verticalLabelPosition=bottom;verticalAlign=top;html=1;outlineConnect=0;" vertex="1" parent="1">
          <mxGeometry x="74" y="210" width="30" height="60" as="geometry" />
        </mxCell>
        <mxCell id="leZE12n9osoUIWR-YbD_-11" value="" style="edgeStyle=orthogonalEdgeStyle;rounded=0;orthogonalLoop=1;jettySize=auto;html=1;" edge="1" parent="1" source="leZE12n9osoUIWR-YbD_-7" target="leZE12n9osoUIWR-YbD_-10">
          <mxGeometry relative="1" as="geometry">
            <Array as="points">
              <mxPoint x="394" y="180" />
              <mxPoint x="394" y="180" />
            </Array>
          </mxGeometry>
        </mxCell>
        <mxCell id="leZE12n9osoUIWR-YbD_-7" value="Django&lt;br&gt;(Backend)" style="rounded=0;whiteSpace=wrap;html=1;" vertex="1" parent="1">
          <mxGeometry x="304" y="210" width="120" height="80" as="geometry" />
        </mxCell>
        <mxCell id="leZE12n9osoUIWR-YbD_-10" value="Tesseract OCR" style="whiteSpace=wrap;html=1;rounded=0;" vertex="1" parent="1">
          <mxGeometry x="304" y="100" width="120" height="60" as="geometry" />
        </mxCell>
        <mxCell id="leZE12n9osoUIWR-YbD_-42" value="" style="edgeStyle=orthogonalEdgeStyle;rounded=0;orthogonalLoop=1;jettySize=auto;html=1;" edge="1" parent="1" source="leZE12n9osoUIWR-YbD_-12" target="leZE12n9osoUIWR-YbD_-41">
          <mxGeometry relative="1" as="geometry" />
        </mxCell>
        <mxCell id="leZE12n9osoUIWR-YbD_-12" value="Admin Dashboard&lt;br&gt;(Frontend)" style="whiteSpace=wrap;html=1;verticalAlign=top;" vertex="1" parent="1">
          <mxGeometry x="519" y="210" width="130" height="60" as="geometry" />
        </mxCell>
        <mxCell id="leZE12n9osoUIWR-YbD_-17" value="&lt;div&gt;&lt;br&gt;&lt;/div&gt;Dashboard&lt;br&gt;(Frontend)" style="whiteSpace=wrap;html=1;verticalAlign=top;" vertex="1" parent="1">
          <mxGeometry x="34" y="370" width="120" height="60" as="geometry" />
        </mxCell>
        <mxCell id="leZE12n9osoUIWR-YbD_-24" value="" style="endArrow=classic;html=1;rounded=0;exitX=0.25;exitY=1;exitDx=0;exitDy=0;entryX=0.25;entryY=0;entryDx=0;entryDy=0;" edge="1" parent="1" source="leZE12n9osoUIWR-YbD_-10" target="leZE12n9osoUIWR-YbD_-7">
          <mxGeometry width="50" height="50" relative="1" as="geometry">
            <mxPoint x="334" y="310" as="sourcePoint" />
            <mxPoint x="384" y="260" as="targetPoint" />
          </mxGeometry>
        </mxCell>
        <mxCell id="leZE12n9osoUIWR-YbD_-35" style="edgeStyle=orthogonalEdgeStyle;rounded=0;orthogonalLoop=1;jettySize=auto;html=1;entryX=1;entryY=0.5;entryDx=0;entryDy=0;" edge="1" parent="1" source="leZE12n9osoUIWR-YbD_-25" target="leZE12n9osoUIWR-YbD_-17">
          <mxGeometry relative="1" as="geometry" />
        </mxCell>
        <mxCell id="leZE12n9osoUIWR-YbD_-50" style="edgeStyle=orthogonalEdgeStyle;rounded=0;orthogonalLoop=1;jettySize=auto;html=1;entryX=0.5;entryY=1;entryDx=0;entryDy=0;" edge="1" parent="1" source="leZE12n9osoUIWR-YbD_-25" target="leZE12n9osoUIWR-YbD_-12">
          <mxGeometry relative="1" as="geometry" />
        </mxCell>
        <mxCell id="leZE12n9osoUIWR-YbD_-25" value="Database" style="shape=cylinder3;whiteSpace=wrap;html=1;boundedLbl=1;backgroundOutline=1;size=15;" vertex="1" parent="1">
          <mxGeometry x="331" y="410" width="86" height="80" as="geometry" />
        </mxCell>
        <mxCell id="leZE12n9osoUIWR-YbD_-26" value="" style="endArrow=classic;html=1;rounded=0;entryX=0.583;entryY=1.04;entryDx=0;entryDy=0;entryPerimeter=0;" edge="1" parent="1">
          <mxGeometry width="50" height="50" relative="1" as="geometry">
            <mxPoint x="394.04" y="400" as="sourcePoint" />
            <mxPoint x="394.00000000000006" y="293.20000000000005" as="targetPoint" />
          </mxGeometry>
        </mxCell>
        <mxCell id="leZE12n9osoUIWR-YbD_-27" value="" style="endArrow=classic;html=1;rounded=0;exitX=0.25;exitY=1;exitDx=0;exitDy=0;" edge="1" parent="1">
          <mxGeometry width="50" height="50" relative="1" as="geometry">
            <mxPoint x="344" y="290" as="sourcePoint" />
            <mxPoint x="344" y="400" as="targetPoint" />
          </mxGeometry>
        </mxCell>
        <mxCell id="leZE12n9osoUIWR-YbD_-28" value="" style="endArrow=classic;html=1;rounded=0;" edge="1" parent="1">
          <mxGeometry width="50" height="50" relative="1" as="geometry">
            <mxPoint x="114" y="230" as="sourcePoint" />
            <mxPoint x="294" y="230" as="targetPoint" />
          </mxGeometry>
        </mxCell>
        <mxCell id="leZE12n9osoUIWR-YbD_-30" value="" style="endArrow=classic;html=1;rounded=0;" edge="1" parent="1">
          <mxGeometry width="50" height="50" relative="1" as="geometry">
            <mxPoint x="294" y="260" as="sourcePoint" />
            <mxPoint x="114" y="260" as="targetPoint" />
          </mxGeometry>
        </mxCell>
        <mxCell id="leZE12n9osoUIWR-YbD_-31" value="Login" style="text;html=1;align=center;verticalAlign=middle;resizable=0;points=[];autosize=1;strokeColor=none;fillColor=none;" vertex="1" parent="1">
          <mxGeometry x="174" y="190" width="50" height="30" as="geometry" />
        </mxCell>
        <mxCell id="leZE12n9osoUIWR-YbD_-32" value="" style="endArrow=classic;html=1;rounded=0;" edge="1" parent="1">
          <mxGeometry width="50" height="50" relative="1" as="geometry">
            <mxPoint x="74" y="300" as="sourcePoint" />
            <mxPoint x="74" y="360" as="targetPoint" />
          </mxGeometry>
        </mxCell>
        <mxCell id="leZE12n9osoUIWR-YbD_-34" value="View Menu" style="text;html=1;align=center;verticalAlign=middle;resizable=0;points=[];autosize=1;strokeColor=none;fillColor=none;" vertex="1" parent="1">
          <mxGeometry x="79" y="318" width="80" height="30" as="geometry" />
        </mxCell>
        <mxCell id="leZE12n9osoUIWR-YbD_-37" value="Upload&lt;br&gt;Menu" style="text;html=1;align=center;verticalAlign=middle;resizable=0;points=[];autosize=1;strokeColor=none;fillColor=none;" vertex="1" parent="1">
          <mxGeometry x="678" y="190" width="60" height="40" as="geometry" />
        </mxCell>
        <mxCell id="leZE12n9osoUIWR-YbD_-38" value="" style="endArrow=classic;html=1;rounded=0;exitX=0;exitY=0.5;exitDx=0;exitDy=0;" edge="1" parent="1">
          <mxGeometry width="50" height="50" relative="1" as="geometry">
            <mxPoint x="504" y="225" as="sourcePoint" />
            <mxPoint x="434" y="225" as="targetPoint" />
          </mxGeometry>
        </mxCell>
        <mxCell id="leZE12n9osoUIWR-YbD_-39" value="" style="endArrow=classic;html=1;rounded=0;" edge="1" parent="1">
          <mxGeometry width="50" height="50" relative="1" as="geometry">
            <mxPoint x="431" y="260" as="sourcePoint" />
            <mxPoint x="511" y="260" as="targetPoint" />
          </mxGeometry>
        </mxCell>
        <mxCell id="leZE12n9osoUIWR-YbD_-40" value="Place Order" style="text;html=1;align=center;verticalAlign=middle;resizable=0;points=[];autosize=1;strokeColor=none;fillColor=none;" vertex="1" parent="1">
          <mxGeometry x="154" y="270" width="90" height="30" as="geometry" />
        </mxCell>
        <mxCell id="leZE12n9osoUIWR-YbD_-43" style="edgeStyle=orthogonalEdgeStyle;rounded=0;orthogonalLoop=1;jettySize=auto;html=1;" edge="1" parent="1" source="leZE12n9osoUIWR-YbD_-41" target="leZE12n9osoUIWR-YbD_-2">
          <mxGeometry relative="1" as="geometry" />
        </mxCell>
        <mxCell id="leZE12n9osoUIWR-YbD_-41" value="&lt;br&gt;WhatsApp API&lt;div&gt;&lt;br&gt;&lt;/div&gt;" style="whiteSpace=wrap;html=1;verticalAlign=top;" vertex="1" parent="1">
          <mxGeometry x="524" y="50" width="120" height="60" as="geometry" />
        </mxCell>
        <mxCell id="leZE12n9osoUIWR-YbD_-44" style="edgeStyle=orthogonalEdgeStyle;rounded=0;orthogonalLoop=1;jettySize=auto;html=1;exitX=0;exitY=0.5;exitDx=0;exitDy=0;entryX=0.5;entryY=0;entryDx=0;entryDy=0;entryPerimeter=0;" edge="1" parent="1" source="leZE12n9osoUIWR-YbD_-41" target="leZE12n9osoUIWR-YbD_-3">
          <mxGeometry relative="1" as="geometry">
            <Array as="points">
              <mxPoint x="524" y="80" />
              <mxPoint x="89" y="80" />
            </Array>
          </mxGeometry>
        </mxCell>
        <mxCell id="leZE12n9osoUIWR-YbD_-45" value="Order Updates" style="text;html=1;align=center;verticalAlign=middle;resizable=0;points=[];autosize=1;strokeColor=none;fillColor=none;" vertex="1" parent="1">
          <mxGeometry x="261" y="36" width="100" height="30" as="geometry" />
        </mxCell>
        <mxCell id="leZE12n9osoUIWR-YbD_-46" value="Order Updates" style="text;html=1;align=center;verticalAlign=middle;resizable=0;points=[];autosize=1;strokeColor=none;fillColor=none;" vertex="1" parent="1">
          <mxGeometry x="707" y="41" width="100" height="30" as="geometry" />
        </mxCell>
        <mxCell id="leZE12n9osoUIWR-YbD_-47" value="Process Menu&amp;nbsp;" style="text;html=1;align=center;verticalAlign=middle;resizable=0;points=[];autosize=1;strokeColor=none;fillColor=none;" vertex="1" parent="1">
          <mxGeometry x="398" y="170" width="100" height="30" as="geometry" />
        </mxCell>
        <mxCell id="leZE12n9osoUIWR-YbD_-48" value="Extracted Menu" style="text;html=1;align=center;verticalAlign=middle;resizable=0;points=[];autosize=1;strokeColor=none;fillColor=none;" vertex="1" parent="1">
          <mxGeometry x="226" y="168" width="110" height="30" as="geometry" />
        </mxCell>
        <mxCell id="leZE12n9osoUIWR-YbD_-49" value="View/Manage&lt;br&gt;Orders" style="text;html=1;align=center;verticalAlign=middle;resizable=0;points=[];autosize=1;strokeColor=none;fillColor=none;" vertex="1" parent="1">
          <mxGeometry x="658" y="249" width="100" height="40" as="geometry" />
        </mxCell>
      </root>
    </mxGraphModel>
  </diagram>
</mxfile>
